<svg xmlns="http://www.w3.org/2000/svg" version="1.1" xmlns:xlink="http://www.w3.org/1999/xlink" xmlns:svgjs="http://svgjs.dev/svgjs" width="1500" height="1500" viewBox="0 0 1500 1500"><rect width="1500" height="1500" fill="#000000"></rect><g transform="matrix(0.6666666666666666,0,0,0.6666666666666666,249.41177335392433,600.6884949051241)"><svg viewBox="0 0 396 118" data-background-color="#8b322c" preserveAspectRatio="xMidYMid meet" height="446" width="1500" xmlns="http://www.w3.org/2000/svg" xmlns:xlink="http://www.w3.org/1999/xlink"><g id="tight-bounds" transform="matrix(1,0,0,1,0.23293775184595233,0.25591121478262835)"><svg viewBox="0 0 395.52 116.15275042605565" height="116.15275042605565" width="395.52"><g><svg viewBox="0 0 639.9245672725266 187.9272819425249" height="116.15275042605565" width="395.52"><g><rect width="7.665676026886444" height="136.6620248569012" x="415.58721473006926" y="25.632628542811844" fill="#ffffff" opacity="1" stroke-width="0" stroke="transparent" fill-opacity="1" class="rect-yte-0" data-fill-palette-color="primary" rx="1%" id="yte-0" data-palette-color="#4793af"></rect></g><g transform="matrix(1,0,0,1,0,25.972583828525515)"><svg viewBox="0 0 395.52000000000004 135.98211428547387" height="135.98211428547387" width="395.52000000000004"><g id="textblocktransform"><svg viewBox="0 0 395.52000000000004 135.98211428547387" height="135.98211428547387" width="395.52000000000004" id="textblock"><g><svg viewBox="0 0 395.52000000000004 85.00319697923221" height="85.00319697923221" width="395.52000000000004"><g transform="matrix(1,0,0,1,0,0)"><svg width="395.52000000000004" viewBox="1 -33.65 158.89 34.15" height="85.00319697923221" data-palette-color="#4793af"><g class="wordmark-text-0" data-fill-palette-color="primary" id="text-0"><path d="M5.5-29.85L1-31.05 1.65-33Q3.45-32.9 5.15-32.85 6.85-32.8 9.2-32.8L9.2-32.8Q11.35-32.8 13.65-32.85 15.95-32.9 18.05-33L18.05-33 18.75-31.05 13.05-29.9Q13-25.75 13-22.4 13-19.05 13-15.65L13-15.65Q13-13.05 12.98-9.68 12.95-6.3 13.05-3.45L13.05-3.45Q16.15-3.1 18.82-3.3 21.5-3.5 23.65-4.45L23.65-4.45 24.8-10.5 28-10.5Q28-8.2 28.13-5.33 28.25-2.45 28.45 0L28.45 0Q22.35-0.1 17.6-0.13 12.85-0.15 9.4-0.15L9.4-0.15Q6.85-0.15 5.03-0.1 3.2-0.05 1.65 0L1.65 0 1.05-1.9 5.5-2.95Q5.6-6.9 5.68-9.83 5.75-12.75 5.75-15.15L5.75-15.15Q5.75-18.55 5.78-22.18 5.8-25.8 5.5-29.85L5.5-29.85ZM51-18.55L51-18.55 51-14.35Q49.85-14.55 49.05-14.68 48.25-14.8 47.32-14.88 46.4-14.95 44.85-14.95L44.85-14.95Q43.65-14.95 42.27-14.9 40.9-14.85 39.25-14.6L39.25-14.6 39.25-18.3Q41-18.15 42.27-18.07 43.55-18 44.75-18L44.75-18Q46.3-18 47.25-18.07 48.2-18.15 49.02-18.28 49.85-18.4 51-18.55ZM49.7-22.7L52.45-22.7Q52.4-21.2 52.32-19.73 52.25-18.25 52.25-16.65L52.25-16.65Q52.25-15 52.32-13.13 52.4-11.25 52.45-10.2L52.45-10.2 49.7-10.2 48.05-15.4 48.05-17.55 49.7-22.7ZM58.55 0L58.55 0Q54.15-0.15 39.6-0.15L39.6-0.15Q37.85-0.15 36.2-0.13 34.55-0.1 31.8 0L31.8 0 31.2-1.9 35.6-2.95Q35.7-7 35.77-10.93 35.85-14.85 35.85-18.8L35.85-18.8Q35.85-21.95 35.77-24.6 35.7-27.25 35.6-29.85L35.6-29.85 31.2-31.05 31.85-33Q34.35-32.9 36.35-32.85 38.35-32.8 39.8-32.8L39.8-32.8Q41.25-32.8 43.3-32.8 45.35-32.8 47.6-32.83 49.85-32.85 51.95-32.88 54.05-32.9 55.67-32.93 57.3-32.95 58.05-33L58.05-33Q57.9-29.85 57.8-27.43 57.7-25 57.65-23.1L57.65-23.1 54.45-23.1 53.55-28.35Q52.3-29 50.55-29.3 48.8-29.6 46.85-29.6L46.85-29.6Q45.95-29.6 45.02-29.53 44.1-29.45 43.15-29.35L43.15-29.35Q43.1-24.85 43.07-20.85 43.05-16.85 43.05-13.15L43.05-13.15Q43.05-10.85 43.07-8.45 43.1-6.05 43.15-3.45L43.15-3.45Q44-3.35 44.9-3.28 45.8-3.2 46.7-3.2L46.7-3.2Q48.7-3.2 50.6-3.5 52.5-3.8 53.75-4.45L53.75-4.45 54.9-10.5 58.1-10.5Q58.1-8.2 58.22-5.38 58.35-2.55 58.55 0ZM73.15-30L80.65-30Q80.59-25.05 80.59-21.23 80.59-17.4 80.59-13.95L80.59-13.95Q80.59-11.4 80.59-8.85 80.59-6.3 80.65-3.2L80.65-3.2 85.95-1.9 85.3 0Q84-0.1 81.67-0.13 79.34-0.15 76.95-0.15L76.95-0.15Q74.65-0.15 72.32-0.1 70-0.05 68.45 0L68.45 0 67.75-1.9 73.15-3.2Q73.25-6.9 73.32-9.98 73.4-13.05 73.4-16.2L73.4-16.2Q73.4-19.15 73.32-22.53 73.25-25.9 73.15-30L73.15-30ZM92.05-33L92.05-33Q91.7-29.95 91.59-27.18 91.5-24.4 91.5-22.05L91.5-22.05 88.25-22.05 86.95-29.3Q86.09-29.4 85.05-29.43 84-29.45 82.95-29.45L82.95-29.45Q81.4-29.45 79.84-29.35 78.3-29.25 77.05-29L77.05-29Q75.75-29.25 74.09-29.33 72.45-29.4 70.8-29.4L70.8-29.4Q69.84-29.4 68.95-29.38 68.05-29.35 67.25-29.3L67.25-29.3 65.95-22.05 62.7-22.05Q62.65-24.4 62.5-27.1 62.34-29.8 62.05-33L62.05-33Q63.75-32.95 66.22-32.9 68.7-32.85 71.57-32.83 74.45-32.8 77.4-32.8L77.4-32.8Q80.4-32.8 83.2-32.83 86-32.85 88.3-32.9 90.59-32.95 92.05-33ZM131.49-33L131.49-33 132.19-31.05 127.79-30Q127.44-24.4 127.22-19.53 126.99-14.65 126.74-10.95L126.74-10.95Q126.54-7.8 125.32-5.65 124.09-3.5 122.22-2.2 120.34-0.9 118.09-0.3 115.84 0.3 113.59 0.3L113.59 0.3Q109.94 0.3 106.94-0.7 103.94-1.7 102.07-3.98 100.19-6.25 99.74-10.15L99.74-10.15Q99.49-12.5 99.44-15.65 99.39-18.8 99.39-22.43 99.39-26.05 99.29-29.75L99.29-29.75 94.79-31.05 95.39-33Q96.94-32.95 99.02-32.88 101.09-32.8 103.04-32.8L103.04-32.8Q105.49-32.8 107.44-32.88 109.39-32.95 110.69-33L110.69-33 111.29-31.05 106.84-29.75Q106.69-25.85 106.69-22.15L106.69-22.15Q106.69-18.4 106.82-15.43 106.94-12.45 107.04-10.9L107.04-10.9Q107.39-7.1 109.32-5.1 111.24-3.1 114.74-3.1L114.74-3.1Q118.44-3.1 120.62-4.98 122.79-6.85 123.24-10.95L123.24-10.95Q123.34-12.05 123.39-13.88 123.44-15.7 123.44-17.8L123.44-17.8Q123.44-20.45 123.37-23.68 123.29-26.9 123.04-30L123.04-30 118.54-31.05 119.24-33Q120.74-32.9 122.34-32.85 123.94-32.8 125.24-32.8L125.24-32.8Q126.84-32.8 128.69-32.88 130.54-32.95 131.49-33ZM148.19-33.65L148.19-33.65Q150.94-33.65 153.79-33.02 156.64-32.4 158.69-31.35L158.69-31.35Q158.19-28.9 157.79-27.08 157.39-25.25 156.99-23.3L156.99-23.3 153.79-23.3 153.29-28.75Q152.59-29.75 151.12-30.28 149.64-30.8 148.04-30.8L148.04-30.8Q146.09-30.8 144.54-29.7 142.99-28.6 142.99-26.5L142.99-26.5Q142.99-24.85 144.22-23.73 145.44-22.6 147.37-21.68 149.29-20.75 151.44-19.75 153.59-18.75 155.51-17.38 157.44-16 158.66-13.95 159.89-11.9 159.89-8.85L159.89-8.85Q159.89-5.55 158.04-3.48 156.19-1.4 153.26-0.45 150.34 0.5 147.04 0.5L147.04 0.5Q143.99 0.5 141.04-0.25 138.09-1 135.94-2.35L135.94-2.35Q136.49-4.6 136.87-6.38 137.24-8.15 137.59-10.6L137.59-10.6 140.84-10.6 141.54-4.1Q142.69-3.3 144.01-2.85 145.34-2.4 146.79-2.4L146.79-2.4Q149.14-2.4 150.91-3.58 152.69-4.75 152.69-7.45L152.69-7.45Q152.69-9.55 151.51-10.85 150.34-12.15 148.49-13.05 146.64-13.95 144.56-14.8 142.49-15.65 140.64-16.8 138.79-17.95 137.62-19.75 136.44-21.55 136.44-24.4L136.44-24.4Q136.44-27.5 138.06-29.55 139.69-31.6 142.37-32.63 145.04-33.65 148.19-33.65Z" fill="#ffffff" data-fill-palette-color="primary"></path></g></svg></g></svg></g><g transform="matrix(1,0,0,1,163.31020800000002,105.07041170930144)"><svg viewBox="0 0 232.20979200000002 30.91170257617245" height="30.91170257617245" width="232.20979200000002"><g transform="matrix(1,0,0,1,0,0)"><svg width="232.20979200000002" viewBox="3 -36 343.26 45.7" height="30.91170257617245" data-palette-color="#7bc6fc"><path d="M19.8-15.65L4.5-15.65 4.5-19.55 19.8-19.55 19.8-15.65ZM22.85 0L18.3 0 18.3-35.25 22.85-35.25 22.85 0ZM7.55 0L3 0 3-35.25 7.55-35.25 7.55 0ZM46.9 0L42.35 0 42.35-17.2 46.9-17.2 46.9 0ZM36.25 0.75L36.25 0.75 36.6-3Q38.4-3 39.67-3.9 40.95-4.8 41.65-6.55 42.35-8.3 42.35-10.7L42.35-10.7 44.6-10.8Q44.6-7.4 43.5-4.8 42.4-2.2 40.52-0.73 38.65 0.75 36.25 0.75ZM36.6-3L36.25 0.75Q34 0.75 32.15-0.3 30.3-1.35 29.2-3.18 28.1-5 28.1-7.25L28.1-7.25 32.4-7.4Q32.4-5.5 33.67-4.25 34.95-3 36.6-3L36.6-3ZM32.4-7.4L28.1-7.25Q28.1-9.6 29.27-11.38 30.45-13.15 32.45-14.2 34.45-15.25 37-15.25L37-15.25 37.25-11.75Q35.15-11.75 33.77-10.53 32.4-9.3 32.4-7.4L32.4-7.4ZM44.7-11.75L37.25-11.75 37-15.25 44.7-15.25 44.7-11.75ZM44.6-10.8L42.35-10.7 42.35-17.15 44.6-17.15 44.6-10.8ZM46.9-17.1L46.9-17.1 42.35-17.1Q42.35-19.3 41.02-20.7 39.7-22.1 37.6-22.1L37.6-22.1 37.6-26Q40.3-26 42.37-24.85 44.45-23.7 45.67-21.68 46.9-19.65 46.9-17.1ZM32.9-17.7L32.9-17.7 28.7-18.55Q29-20.8 30.22-22.45 31.45-24.1 33.37-25.05 35.3-26 37.65-26L37.65-26 37.65-22.1Q35.8-22.1 34.47-21.03 33.15-19.95 32.9-17.7ZM63.5 0L59.3 0 67.09-25.25 71.65-25.25 63.5 0ZM63 0L58.85 0 50.65-25.25 55.2-25.25 63 0ZM92.29-11.25L75.24-11.25 75.24-14.5 92.29-14.5 92.29-11.25ZM83.24 0.8L82.99 0.8 82.99-3.15 83.24-3.15 83.24 0.8ZM78.34-8.95L73.79-8.95 73.79-16.3 78.34-16.3 78.34-8.95ZM92.29-14.5L87.74-14.5 87.74-17.1 92.29-17.1 92.29-14.5ZM92.29-17.1L92.29-17.1 87.74-17.1Q87.74-19.3 86.42-20.7 85.09-22.1 82.99-22.1L82.99-22.1 82.99-26Q85.69-26 87.77-24.85 89.84-23.7 91.07-21.68 92.29-19.65 92.29-17.1ZM87.94-7.5L87.94-7.5 92.19-6.65Q91.89-4.5 90.64-2.8 89.39-1.1 87.49-0.15 85.59 0.8 83.24 0.8L83.24 0.8 83.24-3.15Q85.04-3.15 86.37-4.23 87.69-5.3 87.94-7.5ZM78.34-16.25L73.79-16.25Q73.79-19.1 75.02-21.28 76.24-23.45 78.32-24.73 80.39-26 83.04-26L83.04-26 83.04-22.1Q80.84-22.1 79.59-20.58 78.34-19.05 78.34-16.25L78.34-16.25ZM73.79-8.95L73.79-8.95 78.34-8.95Q78.34-6.2 79.59-4.67 80.84-3.15 83.04-3.15L83.04-3.15 83.04 0.8Q80.39 0.8 78.32-0.48 76.24-1.75 75.02-3.95 73.79-6.15 73.79-8.95ZM119.84-15.55L109.74-15.55 109.74-19.6 119.84-19.6 119.84-15.55ZM106.44 0L106.44-35.25 110.99-35.25 110.99 0 106.44 0ZM109.49-31.3L109.49-35.25 122.34-35.25 122.34-31.3 109.49-31.3ZM139.64-25.25L144.19-25.25 144.19 0 139.64 0 139.64-25.25ZM125.59-25.25L130.14-25.25 130.14-8.05 125.59-8.05 125.59-25.25ZM125.59-8.05L130.14-8.05Q130.14-5.95 131.46-4.63 132.79-3.3 134.84-3.3L134.84-3.3 133.69 0.75Q131.34 0.75 129.51-0.4 127.69-1.55 126.64-3.55 125.59-5.55 125.59-8.05L125.59-8.05ZM139.64-8.2L141.64-8.2Q141.64-5.65 140.61-3.63 139.59-1.6 137.76-0.43 135.94 0.75 133.69 0.75L133.69 0.75 134.84-3.3Q136.94-3.3 138.29-4.65 139.64-6 139.64-8.2L139.64-8.2ZM154.73 0L150.18 0 150.18-25.25 154.73-25.25 154.73 0ZM168.78 0L164.23 0 164.23-17.2 168.78-17.2 168.78 0ZM168.78-17.2L164.23-17.2Q164.23-19.3 162.93-20.63 161.63-21.95 159.58-21.95L159.58-21.95 160.73-26Q163.03-26 164.86-24.85 166.68-23.7 167.73-21.7 168.78-19.7 168.78-17.2L168.78-17.2ZM154.73-17.1L152.73-17.1Q152.73-19.65 153.78-21.68 154.83-23.7 156.63-24.85 158.43-26 160.73-26L160.73-26 159.58-21.95Q157.43-21.95 156.08-20.6 154.73-19.25 154.73-17.1L154.73-17.1ZM202.18-31.3L181.43-31.3 181.43-35.25 202.18-35.25 202.18-31.3ZM194.08 0L189.53 0 189.53-35.25 194.08-35.25 194.08 0ZM219.78-8.95L215.23-8.95 215.23-16.3 219.78-16.3 219.78-8.95ZM205.73-8.95L201.18-8.95 201.18-16.3 205.73-16.3 205.73-8.95ZM210.63-22.05L210.33-22.05 210.33-26 210.63-26 210.63-22.05ZM210.63 0.75L210.33 0.75 210.33-3.2 210.63-3.2 210.63 0.75ZM205.73-16.25L201.18-16.25Q201.18-19.05 202.4-21.25 203.63-23.45 205.7-24.73 207.78-26 210.43-26L210.43-26 210.43-22.05Q208.23-22.05 206.98-20.55 205.73-19.05 205.73-16.25L205.73-16.25ZM219.78-16.25L219.78-16.25 215.23-16.25Q215.23-19.05 214-20.55 212.78-22.05 210.53-22.05L210.53-22.05 210.53-26Q213.18-26 215.25-24.73 217.33-23.45 218.55-21.25 219.78-19.05 219.78-16.25ZM201.18-9L201.18-9 205.73-9Q205.73-6.25 206.98-4.73 208.23-3.2 210.43-3.2L210.43-3.2 210.43 0.75Q207.78 0.75 205.7-0.53 203.63-1.8 202.4-4 201.18-6.2 201.18-9ZM215.23-9L219.78-9Q219.78-6.2 218.55-4 217.33-1.8 215.25-0.53 213.18 0.75 210.53 0.75L210.53 0.75 210.53-3.2Q212.78-3.2 214-4.73 215.23-6.25 215.23-9L215.23-9ZM242.27 0.9L237.72 0.9 237.72-25.25 242.27-25.25 242.27 0.9ZM228.22-8.7L223.67-8.7 223.67-17.2 228.22-17.2 228.22-8.7ZM228.22-17.2L228.22-17.2 223.67-17.2Q223.67-19.7 224.72-21.7 225.77-23.7 227.6-24.85 229.42-26 231.77-26L231.77-26 232.92-21.95Q230.87-21.95 229.55-20.63 228.22-19.3 228.22-17.2ZM239.72-17.1L239.72-17.1 237.72-17.1Q237.72-19.25 236.37-20.6 235.02-21.95 232.92-21.95L232.92-21.95 231.77-26Q234.02-26 235.85-24.85 237.67-23.7 238.7-21.68 239.72-19.65 239.72-17.1ZM223.67-8.7L228.22-8.7Q228.22-6.6 229.55-5.28 230.87-3.95 232.92-3.95L232.92-3.95 231.77 0.1Q229.42 0.1 227.6-1.05 225.77-2.2 224.72-4.2 223.67-6.2 223.67-8.7L223.67-8.7ZM237.72-8.85L239.72-8.85Q239.72-6.3 238.7-4.28 237.67-2.25 235.85-1.07 234.02 0.1 231.77 0.1L231.77 0.1 232.92-3.95Q235.02-3.95 236.37-5.3 237.72-6.65 237.72-8.85L237.72-8.85ZM237.72 0.75L242.27 0.75Q242.27 3.3 241.07 5.33 239.87 7.35 237.77 8.53 235.67 9.7 233.02 9.7L233.02 9.7 233.02 5.75Q235.07 5.75 236.4 4.33 237.72 2.9 237.72 0.75L237.72 0.75ZM224.07 2.25L228.27 1.4Q228.52 3.6 229.87 4.67 231.22 5.75 233.02 5.75L233.02 5.75 233.02 9.7Q230.72 9.7 228.77 8.75 226.82 7.8 225.6 6.1 224.37 4.4 224.07 2.25L224.07 2.25ZM265.42-11.25L248.37-11.25 248.37-14.5 265.42-14.5 265.42-11.25ZM256.37 0.8L256.12 0.8 256.12-3.15 256.37-3.15 256.37 0.8ZM251.47-8.95L246.92-8.95 246.92-16.3 251.47-16.3 251.47-8.95ZM265.42-14.5L260.87-14.5 260.87-17.1 265.42-17.1 265.42-14.5ZM265.42-17.1L265.42-17.1 260.87-17.1Q260.87-19.3 259.55-20.7 258.22-22.1 256.12-22.1L256.12-22.1 256.12-26Q258.82-26 260.9-24.85 262.97-23.7 264.2-21.68 265.42-19.65 265.42-17.1ZM261.07-7.5L261.07-7.5 265.32-6.65Q265.02-4.5 263.77-2.8 262.52-1.1 260.62-0.15 258.72 0.8 256.37 0.8L256.37 0.8 256.37-3.15Q258.17-3.15 259.5-4.23 260.82-5.3 261.07-7.5ZM251.47-16.25L246.92-16.25Q246.92-19.1 248.15-21.28 249.37-23.45 251.45-24.73 253.52-26 256.17-26L256.17-26 256.17-22.1Q253.97-22.1 252.72-20.58 251.47-19.05 251.47-16.25L251.47-16.25ZM246.92-8.95L246.92-8.95 251.47-8.95Q251.47-6.2 252.72-4.67 253.97-3.15 256.17-3.15L256.17-3.15 256.17 0.8Q253.52 0.8 251.45-0.48 249.37-1.75 248.15-3.95 246.92-6.15 246.92-8.95ZM276.27-7.65L271.72-7.65 271.72-35.3 276.27-35.25 276.27-7.65ZM282.57-21.5L268.82-21.5 268.82-25.25 282.57-25.25 282.57-21.5ZM271.72-7.7L271.72-7.7 276.27-7.7Q276.27-6.25 276.67-5.25 277.07-4.25 277.82-3.73 278.57-3.2 279.62-3.2L279.62-3.2 279.22 0.75Q275.72 0.75 273.72-1.48 271.72-3.7 271.72-7.7ZM281.97-4.05L281.97-4.05 283.77-0.8Q282.77-0.05 281.59 0.35 280.42 0.75 279.22 0.75L279.22 0.75 279.62-3.2Q280.27-3.2 280.84-3.43 281.42-3.65 281.97-4.05ZM292.07 0L287.52 0 287.52-25.25 292.07-25.25 292.07 0ZM306.12 0L301.57 0 301.57-17.2 306.12-17.2 306.12 0ZM306.12-17.2L301.57-17.2Q301.57-19.3 300.27-20.63 298.97-21.95 296.92-21.95L296.92-21.95 298.07-26Q300.37-26 302.19-24.85 304.02-23.7 305.07-21.7 306.12-19.7 306.12-17.2L306.12-17.2ZM292.07-17.1L290.07-17.1Q290.07-19.65 291.12-21.68 292.17-23.7 293.97-24.85 295.77-26 298.07-26L298.07-26 296.92-21.95Q294.77-21.95 293.42-20.6 292.07-19.25 292.07-17.1L292.07-17.1ZM292.07 0L287.52 0 287.52-36 292.07-36 292.07 0ZM328.51-11.25L311.46-11.25 311.46-14.5 328.51-14.5 328.51-11.25ZM319.46 0.8L319.21 0.8 319.21-3.15 319.46-3.15 319.46 0.8ZM314.56-8.95L310.01-8.95 310.01-16.3 314.56-16.3 314.56-8.95ZM328.51-14.5L323.96-14.5 323.96-17.1 328.51-17.1 328.51-14.5ZM328.51-17.1L328.51-17.1 323.96-17.1Q323.96-19.3 322.64-20.7 321.31-22.1 319.21-22.1L319.21-22.1 319.21-26Q321.91-26 323.99-24.85 326.06-23.7 327.29-21.68 328.51-19.65 328.51-17.1ZM324.16-7.5L324.16-7.5 328.41-6.65Q328.11-4.5 326.86-2.8 325.61-1.1 323.71-0.15 321.81 0.8 319.46 0.8L319.46 0.8 319.46-3.15Q321.26-3.15 322.59-4.23 323.91-5.3 324.16-7.5ZM314.56-16.25L310.01-16.25Q310.01-19.1 311.24-21.28 312.46-23.45 314.54-24.73 316.61-26 319.26-26L319.26-26 319.26-22.1Q317.06-22.1 315.81-20.58 314.56-19.05 314.56-16.25L314.56-16.25ZM310.01-8.95L310.01-8.95 314.56-8.95Q314.56-6.2 315.81-4.67 317.06-3.15 319.26-3.15L319.26-3.15 319.26 0.8Q316.61 0.8 314.54-0.48 312.46-1.75 311.24-3.95 310.01-6.15 310.01-8.95ZM337.71 0L333.16 0 333.16-25.25 337.71-25.25 337.71 0ZM337.71-16.9L335.66-16.9Q335.66-19.45 336.51-21.48 337.36-23.5 338.84-24.65 340.31-25.8 342.11-25.8L342.11-25.8 341.71-21.55Q339.96-21.55 338.84-20.23 337.71-18.9 337.71-16.9L337.71-16.9ZM346.26-24.2L344.71-20.4Q344.11-20.9 343.29-21.23 342.46-21.55 341.71-21.55L341.71-21.55 342.11-25.8Q343.26-25.8 344.36-25.38 345.46-24.95 346.26-24.2L346.26-24.2Z" opacity="1" transform="matrix(1,0,0,1,0,0)" fill="#ffffff" class="slogan-text-1" data-fill-palette-color="secondary" id="text-1"></path></svg></g></svg></g></svg></g></svg></g><g transform="matrix(1,0,0,1,443.32010548702493,0)"><svg viewBox="0 0 196.60446178550168 187.9272819425249" height="187.9272819425249" width="196.60446178550168"><g><svg xmlns="http://www.w3.org/2000/svg" data-name="Livello 1" viewBox="1.928663922803704 4.996338423875757 94.14185468586442 89.98688385538618" x="0" y="0" height="187.9272819425249" width="196.60446178550168" class="icon-icon-0" data-fill-palette-color="accent" id="icon-0"><path d="M77.802 32.01A4.57 4.57 0 0 0 73.724 31.453 1 1 0 0 0 73.09 32.042 11.2 11.2 0 0 0 71.195 33.99C70.937 34.304 70.689 34.609 70.44 34.87 68.715 36.7 66.78 38.424 64.91 40.092 64.06 40.85 63.212 41.606 62.38 42.374 56.59 47.712 50.025 53.76 43.293 59.224A92 92 0 0 0 33.774 68.244C33.514 68.525 33.204 68.83 32.87 69.159 31.397 70.615 29.561 72.428 29.207 74.448A3.55 3.55 0 0 0 29.921 77.284C32.17 80.227 39.118 81.16 42.001 81.426Q44.03 81.612 46.061 81.612A44.5 44.5 0 0 0 56.1 80.466L56.313 80.48A1 1 0 0 0 57.025 80.241 43 43 0 0 0 62.302 78.527C68.826 75.928 72.69 72.014 76.48 66.938 81.337 60.435 83.377 54.133 82.9 47.108 82.653 43.445 81.658 34.647 77.803 32.008M36.709 72.028C39.74 69.477 42.665 66.727 45.495 64.068L45.762 63.817C49.572 60.237 53.584 56.742 57.465 53.36 63.346 48.235 69.42 42.941 74.95 37.225 79.765 44.201 77.834 55.76 73.085 62.831 68.401 69.807 62.932 73.765 55.876 75.285 48.89 76.79 42.991 76.82 37.844 75.38L37.644 75.327A17.5 17.5 0 0 1 34.908 74.446 15.4 15.4 0 0 1 36.71 72.029" fill="#ffffff" data-fill-palette-color="accent"></path><path d="M30.989 62.637A253 253 0 0 0 38.754 45.463 2.17 2.17 0 0 0 38.384 43.178 2.74 2.74 0 0 0 35.767 42.262L16.284 46.57A2.31 2.31 0 0 0 14.488 49.434 2.505 2.505 0 0 0 17.513 51.417L32.221 48.164A245 245 0 0 1 26.609 60.23 2.56 2.56 0 0 0 27.809 63.68 2.5 2.5 0 0 0 28.939 63.957 2.27 2.27 0 0 0 30.99 62.637" fill="#ffffff" data-fill-palette-color="accent"></path><path d="M42.74 40.492A2.8 2.8 0 0 0 44.349 40.986 2.6 2.6 0 0 0 45.518 40.716 247 247 0 0 0 61.619 31.683 2.39 2.39 0 0 0 62.806 29.548 2.68 2.68 0 0 0 61.442 27.293 2.33 2.33 0 0 0 59.06 27.386 246 246 0 0 1 47.4 34.081L49.412 18.88A2.183 2.183 0 0 0 47.47 16.347 2.66 2.66 0 0 0 44.429 18.618L41.814 38.402A2.15 2.15 0 0 0 42.74 40.491" fill="#ffffff" data-fill-palette-color="accent"></path><path d="M88.513 11.68A14.05 14.05 0 0 0 79.907 13.623 45 45 0 0 0 76.439 11.36C59.561 1.46 37.204 3.23 19.521 15.84A35.6 35.6 0 0 0 10.677 23.356C10.374 23.733 10.109 24.04 9.873 24.31A6.56 6.56 0 0 0 7.927 28.386 1.45 1.45 0 0 0 8.757 29.946C3.461 39.889 0.502 48.966 2.617 59.953A46.7 46.7 0 0 0 10.95 79.296 13.54 13.54 0 0 0 8.9 87.108 7.77 7.77 0 0 0 13.765 94.15 10.42 10.42 0 0 0 24.3 91.927L24.531 91.713A12 12 0 0 0 25.481 90.7 49.495 49.495 0 0 0 79.95 81.14 53 53 0 0 0 82.966 78.045C92.955 66.912 97.673 52.255 95.584 38.839A38 38 0 0 0 92.156 27.897C92.207 27.849 92.26 27.807 92.312 27.759L92.546 27.531A10.55 10.55 0 0 0 95.373 17.012 7.89 7.89 0 0 0 88.513 11.68M14.51 88.074C13.52 86.74 13.624 84.995 14.319 83.191A17.5 17.5 0 0 1 17.217 78.502C19.2 76.122 21.519 74.275 22.65 74.047L22.618 73.927 22.654 74.047H22.65C23.473 76.978 24.418 80.514 23.833 83.642A9 9 0 0 1 23.654 84.411L23.641 84.467A8 8 0 0 1 23.4 85.172C23.39 85.205 23.38 85.24 23.368 85.272A8 8 0 0 1 23.073 85.906C23.05 85.952 23.033 85.999 23.008 86.044A7 7 0 0 1 22.562 86.774 7 7 0 0 1 21.857 87.627L21.85 87.637A8 8 0 0 1 20.997 88.393C19.01 89.914 16.265 90.439 14.51 88.074M90.21 39.252C92.368 50.53 89.06 62.974 81.363 72.542 68.303 88.757 45.735 93.93 28.003 85.826 29.614 79.935 27.404 73.343 26.414 70.863A3.13 3.13 0 0 0 24.327 68.147C22.275 67.524 19.323 69.297 15.307 73.567 14.885 74.014 14.507 74.453 14.127 74.894A32.46 32.46 0 0 1 8.27 60.725C6.433 49.412 9.744 36.575 17.104 26.41A36 36 0 0 1 20.813 22.327C34.187 9.673 57.26 6.89 73.339 15.995 73.904 16.315 74.453 16.652 74.993 16.997 74.84 17.122 74.692 17.228 74.538 17.358 70.015 21.16 68.067 24.054 68.586 26.186A3.24 3.24 0 0 0 71.263 28.512C73.849 29.712 81.019 32.554 87.322 30.642A33.7 33.7 0 0 1 90.21 39.252M89.868 23.872A8.3 8.3 0 0 1 88.928 24.87L88.911 24.885A7 7 0 0 1 88.442 25.271L88.38 25.323C88.199 25.457 88.016 25.583 87.829 25.698A8 8 0 0 1 87.114 26.086C86.988 26.146 86.86 26.197 86.734 26.25 86.625 26.296 86.516 26.343 86.406 26.384Q86.146 26.48 85.88 26.56L85.72 26.607C85.509 26.665 85.299 26.718 85.086 26.762 81.471 27.51 77.371 26.173 74.016 25.03L73.89 24.985 74.017 25.03C74.315 23.88 76.245 21.672 78.735 19.739 79.123 19.437 79.525 19.143 79.935 18.86L79.947 18.853C80.356 18.571 80.776 18.301 81.201 18.048H81.202A17 17 0 0 1 83.802 16.764C86.03 15.908 88.19 15.764 89.723 17.04 92.095 19.013 91.497 21.822 89.868 23.871" fill="#ffffff" data-fill-palette-color="accent"></path></svg></g></svg></g></svg></g><defs></defs></svg><rect width="395.52" height="116.15275042605565" fill="none" stroke="none" visibility="hidden"></rect></g></svg></g></svg>